<svg width="23" height="12" viewBox="0 0 23 12" fill="none" xmlns="http://www.w3.org/2000/svg">
<path d="M10.35 12H5.75C4.15917 12 2.80313 11.415 1.68187 10.245C0.560625 9.075 0 7.66 0 6C0 4.34 0.560625 2.925 1.68187 1.755C2.80313 0.585 4.15917 0 5.75 0H10.35V2.4H5.75C4.79167 2.4 3.97708 2.75 3.30625 3.45C2.63542 4.15 2.3 5 2.3 6C2.3 7 2.63542 7.85 3.30625 8.55C3.97708 9.25 4.79167 9.6 5.75 9.6H10.35V12ZM6.9 7.2V4.8H16.1V7.2H6.9ZM12.65 12V9.6H17.25C18.2083 9.6 19.0229 9.25 19.6938 8.55C20.3646 7.85 20.7 7 20.7 6C20.7 5 20.3646 4.15 19.6938 3.45C19.0229 2.75 18.2083 2.4 17.25 2.4H12.65V0H17.25C18.8408 0 20.1969 0.585 21.3181 1.755C22.4394 2.925 23 4.34 23 6C23 7.66 22.4394 9.075 21.3181 10.245C20.1969 11.415 18.8408 12 17.25 12H12.65Z" fill="#E8EAED"/>
</svg>
