<svg width="22" height="20" viewBox="0 0 22 20" fill="none" xmlns="http://www.w3.org/2000/svg">
<path d="M10.8507 20L15.3801 8H17.4706L22 20H19.9095L18.8394 16.95H14.0113L12.9412 20H10.8507ZM2.98643 17L1.59276 15.6L6.61991 10.55C6.03922 9.96667 5.51244 9.3 5.03959 8.55C4.56674 7.8 4.13122 6.95 3.73303 6H5.82353C6.15535 6.65 6.48718 7.21667 6.819 7.7C7.15083 8.18333 7.54902 8.66667 8.01357 9.15C8.56109 8.6 9.12934 7.82917 9.71833 6.8375C10.3073 5.84583 10.7511 4.9 11.0498 4H0V2H6.96833V0H8.95928V2H15.9276V4H13.0407C12.6923 5.2 12.1697 6.43333 11.4729 7.7C10.776 8.96667 10.0875 9.93333 9.40724 10.6L11.7964 13.05L11.0498 15.1L8.01357 11.975L2.98643 17ZM14.6335 15.2H18.2172L16.4253 10.1L14.6335 15.2Z" fill="#E8EAED"/>
</svg>
