<svg width="14" height="24" viewBox="0 0 14 24" fill="none" xmlns="http://www.w3.org/2000/svg">
<path d="M4.27878 22.614C3.50134 23.3837 2.25081 23.3892 1.4666 22.6265C0.661139 21.843 0.655424 20.5511 1.45392 19.7606L7.26675 14.0059C7.26894 14.0037 7.2674 14 7.26431 14C7.26122 14 7.25968 13.9963 7.26188 13.9941L8.68317 12.587C9.00966 12.2638 9.00966 11.7362 8.68317 11.413L7.26189 10.0059C7.25969 10.0038 7.26123 10 7.26433 10C7.26743 10 7.26897 9.99626 7.26678 9.99407L1.47147 4.21659C0.688208 3.43574 0.690418 2.16649 1.4764 1.38837C2.25319 0.619348 3.50439 0.619347 4.28118 1.38837L12.8465 9.86805C14.0323 11.042 14.0323 12.958 12.8465 14.132L4.27878 22.614Z" fill="#E8EAED"/>
</svg>
