<svg width="22" height="22" viewBox="0 0 22 22" fill="none" xmlns="http://www.w3.org/2000/svg">
<path d="M9.075 12.925C8.58611 12.4361 8.13924 11.9243 7.73438 11.3896C7.32951 10.8549 6.95903 10.2896 6.62292 9.69375C6.54653 9.90764 6.49688 10.1253 6.47396 10.3469C6.45104 10.5684 6.43958 10.7861 6.43958 11C6.43958 12.2681 6.88264 13.3451 7.76875 14.2313C8.65486 15.1174 9.73195 15.5604 11 15.5604C11.2139 15.5604 11.4316 15.5451 11.6531 15.5146C11.8747 15.484 12.0924 15.4382 12.3063 15.3771C11.7104 15.041 11.1451 14.6705 10.6104 14.2656C10.0757 13.8608 9.56389 13.4139 9.075 12.925ZM10.3813 11.6417C11.1604 12.4208 12.0312 13.0892 12.9938 13.6469C13.9563 14.2045 14.9875 14.6361 16.0875 14.9417C15.4764 15.7208 14.7278 16.3281 13.8417 16.7635C12.9556 17.199 12.016 17.4167 11.0229 17.4167C9.23542 17.4167 7.7191 16.7941 6.47396 15.549C5.22882 14.3038 4.60625 12.7875 4.60625 11C4.60625 10.0069 4.82396 9.06736 5.25938 8.18125C5.69479 7.29514 6.30208 6.54653 7.08125 5.93542C7.38681 7.03542 7.8184 8.06667 8.37604 9.02917C8.93368 9.99167 9.60208 10.8625 10.3813 11.6417ZM17.0271 13.2917C16.7215 13.2153 16.4198 13.1313 16.1219 13.0396C15.824 12.9479 15.5299 12.841 15.2396 12.7188C15.3618 12.4438 15.4497 12.1649 15.5031 11.8823C15.5566 11.5997 15.5833 11.3056 15.5833 11C15.5833 9.73195 15.1365 8.65104 14.2427 7.75729C13.349 6.86354 12.2681 6.41667 11 6.41667C10.6944 6.41667 10.4003 6.4434 10.1177 6.49688C9.83507 6.55035 9.55625 6.63819 9.28125 6.76042C9.15903 6.47014 9.0559 6.17986 8.97188 5.88958C8.88785 5.59931 8.80764 5.30139 8.73125 4.99583C9.09792 4.85833 9.47222 4.75521 9.85417 4.68646C10.2361 4.61771 10.6257 4.58333 11.0229 4.58333C12.8104 4.58333 14.3267 5.2059 15.5719 6.45104C16.817 7.69618 17.4396 9.2125 17.4396 11C17.4396 11.3972 17.4052 11.7868 17.3365 12.1688C17.2677 12.5507 17.1646 12.925 17.0271 13.2917ZM10.0833 2.75V0H11.9167V2.75H10.0833ZM10.0833 22V19.25H11.9167V22H10.0833ZM17.4854 5.82083L16.1792 4.51458L18.1271 2.58958L19.4333 3.87292L17.4854 5.82083ZM3.87292 19.4104L2.56667 18.1271L4.51458 16.1792L5.82083 17.4854L3.87292 19.4104ZM19.25 11.9167V10.0833H22V11.9167H19.25ZM0 11.9167V10.0833H2.75V11.9167H0ZM18.1271 19.4333L16.1792 17.4854L17.4854 16.1792L19.4104 18.1271L18.1271 19.4333ZM4.51458 5.82083L2.58958 3.87292L3.87292 2.56667L5.82083 4.51458L4.51458 5.82083Z" fill="#E8EAED"/>
</svg>
