<svg width="89" height="148" viewBox="0 0 89 148" fill="none" xmlns="http://www.w3.org/2000/svg">
<rect x="1" y="1" width="87" height="146" rx="9" fill="#242424" stroke="#E9BC7A" stroke-width="2"/>
<path d="M57.3744 86.1231C60.8117 82.6858 62.5304 78.561 62.5304 73.7487C62.5304 68.9365 60.8117 64.8117 57.3744 61.3744C53.937 57.937 49.8123 56.2184 45 56.2184C40.1877 56.2184 36.063 57.937 32.6256 61.3744C32.3048 61.6952 32.0012 62.0217 31.7147 62.354C31.4283 62.6863 31.159 63.0243 30.907 63.368C32.5111 63.093 34.1266 63.2076 35.7536 63.7118C37.3806 64.2159 38.8128 65.0867 40.0503 66.3241C42.1126 68.3865 43.1438 70.8614 43.1438 73.7487C43.1438 76.6361 42.1126 79.111 40.0503 81.1734C38.7899 82.4337 37.352 83.3102 35.7364 83.8029C34.1209 84.2956 32.5111 84.4044 30.907 84.1295C31.159 84.4732 31.4283 84.8112 31.7147 85.1435C32.0012 85.4757 32.3048 85.8023 32.6256 86.1231C36.063 89.5604 40.1877 91.2791 45 91.2791C49.8123 91.2791 53.937 89.5604 57.3744 86.1231ZM54.6245 83.3732C52.6079 85.3898 50.2419 86.6444 47.5264 87.1371C44.8109 87.6298 42.1929 87.3491 39.6721 86.295C40.245 85.9512 40.795 85.5846 41.3221 85.195C41.8491 84.8055 42.3418 84.3815 42.8001 83.9232C45.6187 81.1046 47.028 77.7131 47.028 73.7487C47.028 69.7844 45.6187 66.3929 42.8001 63.5743C42.3418 63.1159 41.8491 62.692 41.3221 62.3024C40.795 61.9129 40.245 61.5462 39.6721 61.2025C42.1929 60.1484 44.8109 59.8677 47.5264 60.3604C50.2419 60.853 52.6079 62.1077 54.6245 64.1242C57.2827 66.7824 58.6118 69.9906 58.6118 73.7487C58.6118 77.5069 57.2827 80.715 54.6245 83.3732Z" fill="#F8C15B"/>
</svg>
