<svg width="89" height="148" viewBox="0 0 89 148" fill="none" xmlns="http://www.w3.org/2000/svg">
<rect x="0.5" y="0.5" width="88" height="147" rx="9.5" fill="white" stroke="#636F80"/>
<path d="M44.5 78.2727C45.8258 78.2727 46.9527 77.8087 47.8807 76.8807C48.8087 75.9527 49.2727 74.8258 49.2727 73.5C49.2727 72.1742 48.8087 71.0473 47.8807 70.1193C46.9527 69.1913 45.8258 68.7273 44.5 68.7273C43.1742 68.7273 42.0473 69.1913 41.1193 70.1193C40.1913 71.0473 39.7273 72.1742 39.7273 73.5C39.7273 74.8258 40.1913 75.9527 41.1193 76.8807C42.0473 77.8087 43.1742 78.2727 44.5 78.2727ZM44.5 81.4545C42.2992 81.4545 40.4233 80.679 38.8722 79.1278C37.321 77.5767 36.5455 75.7008 36.5455 73.5C36.5455 71.2992 37.321 69.4233 38.8722 67.8722C40.4233 66.321 42.2992 65.5455 44.5 65.5455C46.7008 65.5455 48.5767 66.321 50.1278 67.8722C51.679 69.4233 52.4545 71.2992 52.4545 73.5C52.4545 75.7008 51.679 77.5767 50.1278 79.1278C48.5767 80.679 46.7008 81.4545 44.5 81.4545ZM33.3636 75.0909H27V71.9091H33.3636V75.0909ZM62 75.0909H55.6364V71.9091H62V75.0909ZM42.9091 62.3636V56H46.0909V62.3636H42.9091ZM42.9091 91V84.6364H46.0909V91H42.9091ZM35.5909 66.7386L31.5739 62.8807L33.8409 60.5341L37.6591 64.5114L35.5909 66.7386ZM55.1591 86.4659L51.3011 82.4489L53.4091 80.2614L57.4261 84.1193L55.1591 86.4659ZM51.2614 64.5909L55.1193 60.5739L57.4659 62.8409L53.4886 66.6591L51.2614 64.5909ZM31.5341 84.1591L35.5511 80.3011L37.7386 82.4091L33.8807 86.4261L31.5341 84.1591Z" fill="#F8C15B"/>
</svg>
