<svg width="89" height="148" viewBox="0 0 89 148" fill="none" xmlns="http://www.w3.org/2000/svg">
<path d="M0.5 10C0.5 4.7533 4.7533 0.5 10 0.5H79C84.2467 0.5 88.5 4.75329 88.5 10V138C88.5 143.247 84.2467 147.5 79 147.5H10C4.75329 147.5 0.5 143.247 0.5 138V10Z" fill="#242424" stroke="#636F80"/>
<path fill-rule="evenodd" clip-rule="evenodd" d="M3.99854 144.933C5.68495 146.229 7.79654 147 10.0882 147H78.0001C83.523 147 88.0001 142.523 88.0001 137V10.6571C88.0001 8.1114 87.0489 5.78788 85.4825 4.02258L5.12181 143.356C4.7925 143.927 4.41542 144.453 3.99854 144.933Z" fill="white"/>
</svg>
