<svg width="89" height="148" viewBox="0 0 89 148" fill="none" xmlns="http://www.w3.org/2000/svg">
<path d="M10 1H79C83.9706 1 88 5.02944 88 10V138C88 142.971 83.9706 147 79 147H10C5.02944 147 1 142.971 1 138V10C1 5.02944 5.02944 1 10 1Z" fill="#242424" stroke="#E9BC7A" stroke-width="2"/>
<path fill-rule="evenodd" clip-rule="evenodd" d="M4.01392 143.908C5.70545 145.22 7.82899 146 10.1348 146H77.0001C82.5229 146 87.0001 141.523 87.0001 136V11.6164C87.0001 9.07197 86.0498 6.74952 84.4848 4.98456L5.17363 142.292C4.83468 142.879 4.44522 143.419 4.01392 143.908Z" fill="white"/>
<path d="M78 1.5C82.5 1.5 87.5 5.5 87.5 12" stroke="#E9BC7A"/>
<path d="M87.5 135C87.5 141 84 146 77 146.5" stroke="#E9BC7A"/>
</svg>
