<svg width="89" height="148" viewBox="0 0 89 148" fill="none" xmlns="http://www.w3.org/2000/svg">
<rect x="0.5" y="0.5" width="88" height="147" rx="9.5" fill="#242424" stroke="#636F80"/>
<path d="M39.4792 86.7563L38.5672 86.3749L39.4149 85.8662C39.9743 85.5306 40.5109 85.1728 41.0249 84.7929C41.5322 84.418 42.006 84.0102 42.4466 83.5697C45.172 80.8442 46.528 77.5797 46.528 73.7487C46.528 69.9178 45.172 66.6532 42.4466 63.9278C42.006 63.4872 41.5322 63.0795 41.0249 62.7045C40.5109 62.3247 39.9743 61.9669 39.4149 61.6312L38.5672 61.1226L39.4792 60.7412C42.09 59.6494 44.8062 59.3586 47.6157 59.8684C50.4348 60.3799 52.8921 61.6847 54.9781 63.7707C57.73 66.5226 59.1118 69.8579 59.1118 73.7487C59.1118 77.6395 57.73 80.9749 54.9781 83.7268C52.8921 85.8128 50.4348 87.1176 47.6157 87.6291C44.8062 88.1388 42.09 87.848 39.4792 86.7563ZM57.0208 85.7696C60.3654 82.4249 62.0304 78.4269 62.0304 73.7487C62.0304 69.0706 60.3654 65.0725 57.0208 61.7279C53.6762 58.3833 49.6781 56.7184 45 56.7184C40.3219 56.7184 36.3238 58.3833 32.9792 61.7279C32.6668 62.0403 32.3716 62.3578 32.0934 62.6805C32.077 62.6995 32.0607 62.7186 32.0444 62.7377C33.3263 62.6685 34.6129 62.8349 35.9016 63.2342C37.6083 63.763 39.1106 64.6773 40.4038 65.9706C42.5589 68.1257 43.6438 70.7273 43.6438 73.7487C43.6438 76.7702 42.5589 79.3718 40.4038 81.5269C39.0888 82.8419 37.5806 83.7632 35.8823 84.2812C34.6032 84.6712 33.3233 84.8318 32.0453 84.7609C32.0613 84.7796 32.0773 84.7983 32.0934 84.817C32.3716 85.1396 32.6668 85.4572 32.9792 85.7696C36.3238 89.1142 40.3219 90.7791 45 90.7791C49.6781 90.7791 53.6762 89.1142 57.0208 85.7696Z" fill="#F8C15B" stroke="#636F80"/>
</svg>
