<svg width="89" height="148" viewBox="0 0 89 148" fill="none" xmlns="http://www.w3.org/2000/svg">
<rect x="1" y="1" width="87" height="146" rx="9" fill="white" stroke="#E9BC7A" stroke-width="2"/>
<path d="M44.5 78.2852C45.829 78.2852 46.9591 77.8199 47.8895 76.8895C48.8199 75.9591 49.2852 74.829 49.2852 73.5C49.2852 72.171 48.8199 71.0409 47.8895 70.1105C46.9591 69.1801 45.829 68.7148 44.5 68.7148C43.171 68.7148 42.0409 69.1801 41.1105 70.1105C40.1801 71.0409 39.7148 72.171 39.7148 73.5C39.7148 74.829 40.1801 75.9591 41.1105 76.8895C42.0409 77.8199 43.171 78.2852 44.5 78.2852ZM44.5 81.442C42.3025 81.442 40.4298 80.6678 38.881 79.119C37.3322 77.5702 36.558 75.6975 36.558 73.5C36.558 71.3025 37.3322 69.4298 38.881 67.881C40.4298 66.3322 42.3025 65.558 44.5 65.558C46.6975 65.558 48.5702 66.3322 50.119 67.881C51.6678 69.4298 52.442 71.3025 52.442 73.5C52.442 75.6975 51.6678 77.5702 50.119 79.119C48.5702 80.6678 46.6975 81.442 44.5 81.442ZM33.3511 75.0784H27.0125V71.9216H33.3511V75.0784ZM61.9875 75.0784H55.6489V71.9216H61.9875V75.0784ZM42.9216 62.3511V56.0125H46.0784V62.3511H42.9216ZM42.9216 90.9875V84.6489H46.0784V90.9875H42.9216ZM37.6419 64.5115L35.5904 66.7208L31.5916 62.8804L33.8409 60.5521L37.6419 64.5115ZM51.3185 82.4489L53.4094 80.279L57.4084 84.1197L55.1591 86.4479L51.3185 82.4489ZM53.4885 66.6419L51.2792 64.5904L55.1197 60.5916L57.4479 62.8409L53.4885 66.6419ZM35.5511 80.3185L37.721 82.4094L33.8804 86.4084L31.5521 84.1591L35.5511 80.3185Z" fill="#F8C15B" stroke="#E9BC7A" stroke-width="0.025"/>
</svg>
