<svg width="78" height="78" viewBox="0 0 78 78" fill="none" xmlns="http://www.w3.org/2000/svg">
<rect width="78" height="78" rx="14" fill="#383939"/>
<path d="M26.0001 63.18V57.8933H36.4001V49.699C34.2768 49.2144 32.3809 48.3002 30.7126 46.9565C29.0443 45.6128 27.8201 43.9277 27.0401 41.9011C23.7901 41.5046 21.0709 40.0618 18.8826 37.5727C16.6943 35.0835 15.6001 32.1649 15.6001 28.8166V26.1733C15.6001 24.7195 16.1093 23.4749 17.1276 22.4396C18.1459 21.4043 19.3701 20.8866 20.8001 20.8866H26.0001V15.6H52.0001V20.8866H57.2001C58.6301 20.8866 59.8543 21.4043 60.8726 22.4396C61.8909 23.4749 62.4001 24.7195 62.4001 26.1733V28.8166C62.4001 32.1649 61.3059 35.0835 59.1176 37.5727C56.9293 40.0618 54.2101 41.5046 50.9601 41.9011C50.1801 43.9277 48.9559 45.6128 47.2876 46.9565C45.6193 48.3002 43.7234 49.2144 41.6001 49.699V57.8933H52.0001V63.18H26.0001ZM26.0001 36.218V26.1733H20.8001V28.8166C20.8001 30.4908 21.2768 31.9997 22.2301 33.3434C23.1834 34.687 24.4401 35.6453 26.0001 36.218ZM39.0001 44.6766C41.1668 44.6766 43.0084 43.9057 44.5251 42.3637C46.0418 40.8218 46.8001 38.9494 46.8001 36.7466V20.8866H31.2001V36.7466C31.2001 38.9494 31.9584 40.8218 33.4751 42.3637C34.9918 43.9057 36.8334 44.6766 39.0001 44.6766ZM52.0001 36.218C53.5601 35.6453 54.8168 34.687 55.7701 33.3434C56.7234 31.9997 57.2001 30.4908 57.2001 28.8166V26.1733H52.0001V36.218Z" fill="#E5A939"/>
</svg>
