<svg width="47" height="48" viewBox="0 0 47 48" fill="none" xmlns="http://www.w3.org/2000/svg">
<path d="M10.4 47.58V42.2933H20.8V34.099C18.6767 33.6144 16.7808 32.7002 15.1125 31.3565C13.4442 30.0128 12.22 28.3277 11.44 26.3012C8.19 25.9047 5.47083 24.4618 3.2825 21.9727C1.09417 19.4836 0 16.5649 0 13.2167V10.5733C0 9.1195 0.509167 7.87493 1.5275 6.83963C2.54583 5.80432 3.77 5.28667 5.2 5.28667H10.4V0H36.4V5.28667H41.6C43.03 5.28667 44.2542 5.80432 45.2725 6.83963C46.2908 7.87493 46.8 9.1195 46.8 10.5733V13.2167C46.8 16.5649 45.7058 19.4836 43.5175 21.9727C41.3292 24.4618 38.61 25.9047 35.36 26.3012C34.58 28.3277 33.3558 30.0128 31.6875 31.3565C30.0192 32.7002 28.1233 33.6144 26 34.099V42.2933H36.4V47.58H10.4ZM10.4 20.618V10.5733H5.2V13.2167C5.2 14.8908 5.67667 16.3997 6.63 17.7434C7.58333 19.0871 8.84 20.0453 10.4 20.618ZM23.4 29.0767C25.5667 29.0767 27.4083 28.3057 28.925 26.7638C30.4417 25.2218 31.2 23.3494 31.2 21.1467V5.28667H15.6V21.1467C15.6 23.3494 16.3583 25.2218 17.875 26.7638C19.3917 28.3057 21.2333 29.0767 23.4 29.0767ZM36.4 20.618C37.96 20.0453 39.2167 19.0871 40.17 17.7434C41.1233 16.3997 41.6 14.8908 41.6 13.2167V10.5733H36.4V20.618Z" fill="#E5A939"/>
</svg>
