<svg width="517" height="516" viewBox="0 0 517 516" fill="none" xmlns="http://www.w3.org/2000/svg">
<path d="M412 43.7598C412 43.7598 394.82 33.0367 380.5 33.5C350.871 34.4586 335.322 55.5905 318.5 80C297.829 109.995 297 174 297 174C297 174 360.644 166.131 390 148C418.1 130.645 436.775 112.949 434.5 80C433.134 60.2198 412 43.7598 412 43.7598Z" fill="#AAE889"/>
<path d="M12 341C47.6667 304.167 143.9 233.5 243.5 245.5M12 432C12 432 61.1905 369.449 108.5 346C145.289 327.766 173.035 318.286 214 315.5C270.403 311.664 313.5 338 356.5 341C404.293 344.334 448 337.5 473 315.5C497.151 294.247 509 273 503.5 242.5C499.424 219.899 476.299 202.992 454 197.5C427.045 190.861 388 220.5 388 220.5M108.5 456C108.5 456 140.342 409.727 181 395C230.06 377.23 294.115 381.435 344.5 395C383.5 405.5 407.5 436 411.5 452.5C416.968 475.053 395.06 497.061 372.5 502.5C352.325 507.364 322.5 484.5 322.5 484.5M459 12C446.825 18.8598 429.614 29.9681 412 43.7598M341.5 129.5C353 100 382.111 67.1626 412 43.7598M412 43.7598C412 43.7598 394.82 33.0367 380.5 33.5C350.871 34.4586 335.322 55.5905 318.5 80C297.829 109.995 297 174 297 174C297 174 360.644 166.131 390 148C418.1 130.645 436.775 112.949 434.5 80C433.134 60.2198 412 43.7598 412 43.7598Z" stroke="#333F45" stroke-width="24" stroke-linecap="round" stroke-linejoin="round"/>
</svg>
