<svg width="52" height="49" viewBox="0 0 52 49" fill="none" xmlns="http://www.w3.org/2000/svg">
<path d="M51 26.1288C51 38.979 42.8675 48 29.9503 48C17.0332 48 1 39.9096 1 27.0594C1 14.2092 14.2778 1 27.1949 1C40.112 1 51 13.2786 51 26.1288Z" fill="#EFDC71"/>
<path fill-rule="evenodd" clip-rule="evenodd" d="M29.8667 49C43.2688 49 51.797 40.4688 51.797 27.0667C51.797 13.6646 40.9354 0 27.5333 0C14.1312 0 0 13.1979 0 26.6C0 40.0021 16.4646 49 29.8667 49ZM29.8671 48.0666C42.7538 48.0666 50.8671 39.02 50.8671 26.1333C50.8671 13.2467 40.0048 0.933276 27.1182 0.933276C14.2315 0.933276 0.985059 14.18 0.985059 27.0666C0.985059 39.9533 16.9805 48.0666 29.8671 48.0666Z" fill="#EFDC71"/>
</svg>
