<svg width="20" height="20" viewBox="0 0 20 20" fill="none" xmlns="http://www.w3.org/2000/svg">
<path d="M4.00037 11.9998H12.0004V9.99976H4.00037V11.9998ZM4.00037 8.99976H16.0004V6.99976H4.00037V8.99976ZM4.00037 5.99976H16.0004V3.99976H4.00037V5.99976ZM0.000366211 19.9998V1.99976C0.000366211 1.44976 0.1962 0.978923 0.587866 0.587256C0.979533 0.195589 1.45037 -0.000244141 2.00037 -0.000244141H18.0004C18.5504 -0.000244141 19.0212 0.195589 19.4129 0.587256C19.8045 0.978923 20.0004 1.44976 20.0004 1.99976V13.9998C20.0004 14.5498 19.8045 15.0206 19.4129 15.4123C19.0212 15.8039 18.5504 15.9998 18.0004 15.9998H4.00037L0.000366211 19.9998ZM3.15037 13.9998H18.0004V1.99976H2.00037V15.1248L3.15037 13.9998Z" fill="#AAE889"/>
</svg>
