<svg width="31" height="40" viewBox="0 0 31 40" fill="none" xmlns="http://www.w3.org/2000/svg">
<path d="M4.42857 40V33.3333H0V28.8889H4.42857V24.4444H0V20H4.42857V0H18.8214C22.2167 0 25.0952 1.18519 27.4571 3.55556C29.819 5.92593 31 8.81481 31 12.2222C31 15.6296 29.819 18.5185 27.4571 20.8889C25.0952 23.2593 22.2167 24.4444 18.8214 24.4444H8.85714V28.8889H17.7143V33.3333H8.85714V40H4.42857ZM8.85714 20H18.8214C20.9619 20 22.7887 19.2407 24.3018 17.7222C25.8149 16.2037 26.5714 14.3704 26.5714 12.2222C26.5714 10.0741 25.8149 8.24074 24.3018 6.72222C22.7887 5.2037 20.9619 4.44444 18.8214 4.44444H8.85714V20Z" fill="#E3980D"/>
</svg>
