<svg width="38" height="38" viewBox="0 0 38 38" fill="none" xmlns="http://www.w3.org/2000/svg">
<path d="M7.6 22.8H22.8V19H7.6V22.8ZM7.6 17.1H30.4V13.3H7.6V17.1ZM7.6 11.4H30.4V7.6H7.6V11.4ZM0 38V3.8C0 2.755 0.372083 1.86042 1.11625 1.11625C1.86042 0.372083 2.755 0 3.8 0H34.2C35.245 0 36.1396 0.372083 36.8838 1.11625C37.6279 1.86042 38 2.755 38 3.8V26.6C38 27.645 37.6279 28.5396 36.8838 29.2838C36.1396 30.0279 35.245 30.4 34.2 30.4H7.6L0 38ZM5.985 26.6H34.2V3.8H3.8V28.7375L5.985 26.6Z" fill="#AAE889"/>
</svg>
