<svg width="16" height="20" viewBox="0 0 16 20" fill="none" xmlns="http://www.w3.org/2000/svg">
<path d="M2.28559 19.9999V16.6665H-0.00012207V14.4443H2.28559V12.2221H-0.00012207V9.99988H2.28559V-0.00012207H9.71416C11.4665 -0.00012207 12.9523 0.592471 14.1713 1.77766C15.3904 2.96284 15.9999 4.40729 15.9999 6.11099C15.9999 7.81469 15.3904 9.25914 14.1713 10.4443C12.9523 11.6295 11.4665 12.2221 9.71416 12.2221H4.57131V14.4443H9.14274V16.6665H4.57131V19.9999H2.28559ZM4.57131 9.99988H9.71416C10.8189 9.99988 11.7618 9.62025 12.5427 8.86099C13.3237 8.10173 13.7142 7.18506 13.7142 6.11099C13.7142 5.03692 13.3237 4.12025 12.5427 3.36099C11.7618 2.60173 10.8189 2.2221 9.71416 2.2221H4.57131V9.99988Z" fill="#E3980D"/>
</svg>
