<svg width="41" height="41" viewBox="0 0 41 41" fill="none" xmlns="http://www.w3.org/2000/svg">
<path d="M27.675 18.45C28.5292 18.45 29.2552 18.151 29.8531 17.5531C30.451 16.9552 30.75 16.2292 30.75 15.375C30.75 14.5208 30.451 13.7948 29.8531 13.1969C29.2552 12.599 28.5292 12.3 27.675 12.3C26.8208 12.3 26.0948 12.599 25.4969 13.1969C24.899 13.7948 24.6 14.5208 24.6 15.375C24.6 16.2292 24.899 16.9552 25.4969 17.5531C26.0948 18.151 26.8208 18.45 27.675 18.45ZM13.325 18.45C14.1792 18.45 14.9052 18.151 15.5031 17.5531C16.101 16.9552 16.4 16.2292 16.4 15.375C16.4 14.5208 16.101 13.7948 15.5031 13.1969C14.9052 12.599 14.1792 12.3 13.325 12.3C12.4708 12.3 11.7448 12.599 11.1469 13.1969C10.549 13.7948 10.25 14.5208 10.25 15.375C10.25 16.2292 10.549 16.9552 11.1469 17.5531C11.7448 18.151 12.4708 18.45 13.325 18.45ZM20.5 31.775C22.8233 31.775 24.9331 31.1173 26.8294 29.8019C28.7256 28.4865 30.1008 26.7525 30.955 24.6H27.5725C26.8208 25.8642 25.8215 26.8635 24.5744 27.5981C23.3273 28.3327 21.9692 28.7 20.5 28.7C19.0308 28.7 17.6727 28.3327 16.4256 27.5981C15.1785 26.8635 14.1792 25.8642 13.4275 24.6H10.045C10.8992 26.7525 12.2744 28.4865 14.1706 29.8019C16.0669 31.1173 18.1767 31.775 20.5 31.775ZM20.5 41C17.6642 41 14.9992 40.4619 12.505 39.3856C10.0108 38.3094 7.84125 36.8488 5.99625 35.0037C4.15125 33.1587 2.69062 30.9892 1.61437 28.495C0.538125 26.0008 0 23.3358 0 20.5C0 17.6642 0.538125 14.9992 1.61437 12.505C2.69062 10.0108 4.15125 7.84125 5.99625 5.99625C7.84125 4.15125 10.0108 2.69062 12.505 1.61437C14.9992 0.538125 17.6642 0 20.5 0C23.3358 0 26.0008 0.538125 28.495 1.61437C30.9892 2.69062 33.1587 4.15125 35.0037 5.99625C36.8488 7.84125 38.3094 10.0108 39.3856 12.505C40.4619 14.9992 41 17.6642 41 20.5C41 23.3358 40.4619 26.0008 39.3856 28.495C38.3094 30.9892 36.8488 33.1587 35.0037 35.0037C33.1587 36.8488 30.9892 38.3094 28.495 39.3856C26.0008 40.4619 23.3358 41 20.5 41ZM20.5 36.9C25.0783 36.9 28.9562 35.3112 32.1338 32.1338C35.3112 28.9562 36.9 25.0783 36.9 20.5C36.9 15.9217 35.3112 12.0437 32.1338 8.86625C28.9562 5.68875 25.0783 4.1 20.5 4.1C15.9217 4.1 12.0437 5.68875 8.86625 8.86625C5.68875 12.0437 4.1 15.9217 4.1 20.5C4.1 25.0783 5.68875 28.9562 8.86625 32.1338C12.0437 35.3112 15.9217 36.9 20.5 36.9Z" fill="#AAE889"/>
</svg>
