<svg width="19" height="19" viewBox="0 0 19 19" fill="none" xmlns="http://www.w3.org/2000/svg">
<path d="M12.8251 8.54976C13.221 8.54976 13.5574 8.41122 13.8345 8.13413C14.1116 7.85705 14.2501 7.52059 14.2501 7.12476C14.2501 6.72892 14.1116 6.39246 13.8345 6.11538C13.5574 5.8383 13.221 5.69976 12.8251 5.69976C12.4293 5.69976 12.0928 5.8383 11.8157 6.11538C11.5387 6.39246 11.4001 6.72892 11.4001 7.12476C11.4001 7.52059 11.5387 7.85705 11.8157 8.13413C12.0928 8.41122 12.4293 8.54976 12.8251 8.54976ZM6.17512 8.54976C6.57096 8.54976 6.90741 8.41122 7.1845 8.13413C7.46158 7.85705 7.60012 7.52059 7.60012 7.12476C7.60012 6.72892 7.46158 6.39246 7.1845 6.11538C6.90741 5.8383 6.57096 5.69976 6.17512 5.69976C5.77929 5.69976 5.44283 5.8383 5.16575 6.11538C4.88866 6.39246 4.75012 6.72892 4.75012 7.12476C4.75012 7.52059 4.88866 7.85705 5.16575 8.13413C5.44283 8.41122 5.77929 8.54976 6.17512 8.54976ZM9.50012 14.7248C10.5768 14.7248 11.5545 14.42 12.4332 13.8104C13.312 13.2008 13.9493 12.3973 14.3451 11.3998H12.7776C12.4293 11.9856 11.9662 12.4487 11.3882 12.7891C10.8103 13.1295 10.181 13.2998 9.50012 13.2998C8.81929 13.2998 8.18991 13.1295 7.612 12.7891C7.03408 12.4487 6.57096 11.9856 6.22262 11.3998H4.65512C5.05096 12.3973 5.68825 13.2008 6.567 13.8104C7.44575 14.42 8.42346 14.7248 9.50012 14.7248ZM9.50012 18.9998C8.18596 18.9998 6.95096 18.7504 5.79512 18.2516C4.63929 17.7529 3.63387 17.076 2.77887 16.221C1.92387 15.366 1.247 14.3606 0.748247 13.2048C0.249497 12.0489 0.00012207 10.8139 0.00012207 9.49976C0.00012207 8.18559 0.249497 6.95059 0.748247 5.79476C1.247 4.63892 1.92387 3.63351 2.77887 2.77851C3.63387 1.92351 4.63929 1.24663 5.79512 0.747881C6.95096 0.249131 8.18596 -0.000244141 9.50012 -0.000244141C10.8143 -0.000244141 12.0493 0.249131 13.2051 0.747881C14.361 1.24663 15.3664 1.92351 16.2214 2.77851C17.0764 3.63351 17.7532 4.63892 18.252 5.79476C18.7507 6.95059 19.0001 8.18559 19.0001 9.49976C19.0001 10.8139 18.7507 12.0489 18.252 13.2048C17.7532 14.3606 17.0764 15.366 16.2214 16.221C15.3664 17.076 14.361 17.7529 13.2051 18.2516C12.0493 18.7504 10.8143 18.9998 9.50012 18.9998ZM9.50012 17.0998C11.6218 17.0998 13.4189 16.3635 14.8914 14.891C16.3639 13.4185 17.1001 11.6214 17.1001 9.49976C17.1001 7.37809 16.3639 5.58101 14.8914 4.10851C13.4189 2.63601 11.6218 1.89976 9.50012 1.89976C7.37846 1.89976 5.58137 2.63601 4.10887 4.10851C2.63637 5.58101 1.90012 7.37809 1.90012 9.49976C1.90012 11.6214 2.63637 13.4185 4.10887 14.891C5.58137 16.3635 7.37846 17.0998 9.50012 17.0998Z" fill="#AAE889"/>
</svg>
