<svg width="39" height="39" viewBox="0 0 39 39" fill="none" xmlns="http://www.w3.org/2000/svg">
<path d="M8.66667 39V34.6667H17.3333V27.95C15.5639 27.5528 13.984 26.8035 12.5938 25.7021C11.2035 24.6007 10.1833 23.2194 9.53333 21.5583C6.825 21.2333 4.55903 20.0507 2.73542 18.0104C0.911806 15.9701 0 13.5778 0 10.8333V8.66667C0 7.475 0.424306 6.45486 1.27292 5.60625C2.12153 4.75764 3.14167 4.33333 4.33333 4.33333H8.66667V0H30.3333V4.33333H34.6667C35.8583 4.33333 36.8785 4.75764 37.7271 5.60625C38.5757 6.45486 39 7.475 39 8.66667V10.8333C39 13.5778 38.0882 15.9701 36.2646 18.0104C34.441 20.0507 32.175 21.2333 29.4667 21.5583C28.8167 23.2194 27.7965 24.6007 26.4063 25.7021C25.016 26.8035 23.4361 27.5528 21.6667 27.95V34.6667H30.3333V39H8.66667ZM8.66667 16.9V8.66667H4.33333V10.8333C4.33333 12.2056 4.73056 13.4424 5.525 14.5438C6.31944 15.6451 7.36667 16.4306 8.66667 16.9ZM19.5 23.8333C21.3056 23.8333 22.8403 23.2014 24.1042 21.9375C25.3681 20.6736 26 19.1389 26 17.3333V4.33333H13V17.3333C13 19.1389 13.6319 20.6736 14.8958 21.9375C16.1597 23.2014 17.6944 23.8333 19.5 23.8333ZM30.3333 16.9C31.6333 16.4306 32.6806 15.6451 33.475 14.5438C34.2694 13.4424 34.6667 12.2056 34.6667 10.8333V8.66667H30.3333V16.9Z" fill="#E3980D"/>
</svg>
