<svg width="21" height="21" viewBox="0 0 21 21" fill="none" xmlns="http://www.w3.org/2000/svg">
<path d="M4.66679 21.0001V18.6668H9.33346V15.0501C8.38068 14.8362 7.52998 14.4328 6.78137 13.8397C6.03276 13.2467 5.48346 12.5029 5.13346 11.6085C3.67512 11.4335 2.45498 10.7967 1.47304 9.69804C0.491094 8.59943 0.00012207 7.31123 0.00012207 5.83346V4.66679C0.00012207 4.02512 0.228594 3.47582 0.685539 3.01887C1.14248 2.56193 1.69179 2.33346 2.33346 2.33346H4.66679V0.00012207H16.3335V2.33346H18.6668C19.3085 2.33346 19.8578 2.56193 20.3147 3.01887C20.7717 3.47582 21.0001 4.02512 21.0001 4.66679V5.83346C21.0001 7.31123 20.5092 8.59943 19.5272 9.69804C18.5453 10.7967 17.3251 11.4335 15.8668 11.6085C15.5168 12.5029 14.9675 13.2467 14.2189 13.8397C13.4703 14.4328 12.6196 14.8362 11.6668 15.0501V18.6668H16.3335V21.0001H4.66679ZM4.66679 9.10012V4.66679H2.33346V5.83346C2.33346 6.57234 2.54734 7.23832 2.97512 7.83137C3.4029 8.42443 3.96679 8.84735 4.66679 9.10012ZM10.5001 12.8335C11.4723 12.8335 12.2987 12.4932 12.9793 11.8126C13.6598 11.1321 14.0001 10.3057 14.0001 9.33346V2.33346H7.00012V9.33346C7.00012 10.3057 7.3404 11.1321 8.02096 11.8126C8.70151 12.4932 9.5279 12.8335 10.5001 12.8335ZM16.3335 9.10012C17.0335 8.84735 17.5973 8.42443 18.0251 7.83137C18.4529 7.23832 18.6668 6.57234 18.6668 5.83346V4.66679H16.3335V9.10012Z" fill="#E3980D"/>
</svg>
