<svg width="23" height="17" viewBox="0 0 23 17" fill="none" xmlns="http://www.w3.org/2000/svg">
<path fill-rule="evenodd" clip-rule="evenodd" d="M20.4589 11.118L19.3595 11.1381L19.358 5.8678L20.4575 5.88863L20.4589 11.118ZM20.4568 3.51905L19.3573 3.53908L19.357 2.31343C19.3568 1.68699 19.1554 1.14559 18.7527 0.689234C18.35 0.232877 17.8723 0.0045976 17.3196 0.00439751L15.2648 0.00365363C14.7121 0.00345354 14.2315 0.23479 13.8231 0.697663C13.4147 1.16054 13.2106 1.70519 13.2107 2.33163L13.2295 4.88507L9.26415 4.88363L9.26343 2.30978C9.26325 1.68334 9.06183 1.14194 8.65916 0.685581C8.25649 0.229223 7.77879 0.000944057 7.22604 0.000743969L5.17129 1.29637e-07C4.61855 -0.000199923 4.13797 0.231137 3.72955 0.69401C3.32113 1.15688 3.11701 1.70154 3.11719 2.32798L3.11753 3.55362L2.03608 3.55323C1.48334 3.55303 1.00576 3.78097 0.603353 4.23703C0.200941 4.6931 -0.000176433 5.23435 1.16134e-07 5.86079L0.00148543 11.1311C0.00166198 11.7575 0.203085 12.2989 0.605753 12.7553C1.00842 13.2116 1.48613 13.4399 2.03887 13.4401L3.12032 13.4405L3.12066 14.6661C3.12084 15.2926 3.32527 15.8374 3.73395 16.3005C4.14263 16.7637 4.62334 16.9954 5.17608 16.9956L7.23083 16.9963C7.78358 16.9965 8.26115 16.7686 8.66356 16.3125C9.06598 15.8565 9.26709 15.3152 9.26692 14.6888L9.26619 12.1149L13.2315 12.1164L13.2142 14.6698C13.2144 15.2962 13.4188 15.841 13.8275 16.3042C14.2362 16.7674 14.7169 16.9991 15.2696 16.9993L17.3244 17C17.8771 17.0002 18.3547 16.7723 18.7571 16.3162C19.1595 15.8601 19.3606 15.3189 19.3605 14.6924L19.3601 13.4259L20.4596 13.4468C21.0123 13.447 21.4899 13.219 21.8923 12.763C22.2947 12.3069 22.4958 11.7656 22.4957 11.1392L22.4942 5.86894C22.494 5.24249 22.2926 4.69429 21.8899 4.22431C21.4872 3.75433 21.0095 3.51925 20.4568 3.51905ZM2.01871 5.86152L3.11819 5.88235L3.11966 11.1118L2.02019 11.1318L2.01871 5.86152ZM17.3057 14.6917L15.2509 14.691L15.2475 2.31194L17.3022 2.31269L17.3057 14.6917ZM7.23018 14.6676L5.1574 14.6873L5.15391 2.30829L7.2267 2.32947L7.23018 14.6676ZM13.2128 9.80806L9.26553 9.78621L9.26481 7.21236L13.2121 7.19336L13.2128 9.80806Z" fill="#242424"/>
</svg>
