<svg width="30" height="40" viewBox="0 0 30 40" fill="none" xmlns="http://www.w3.org/2000/svg">
<path d="M10 40C12.7333 40 15.3167 39.475 17.75 38.425C20.1833 37.375 22.3083 35.9417 24.125 34.125C25.9417 32.3083 27.375 30.1833 28.425 27.75C29.475 25.3167 30 22.7333 30 20C30 17.2333 29.475 14.6417 28.425 12.225C27.375 9.80833 25.9417 7.69167 24.125 5.875C22.3083 4.05833 20.1833 2.625 17.75 1.575C15.3167 0.525 12.7333 0 10 0C8.2 0 6.45 0.233333 4.75 0.7C3.05 1.16667 1.46667 1.83333 0 2.7C3.03333 4.46667 5.45833 6.85833 7.275 9.875C9.09167 12.8917 10 16.2667 10 20C10 23.7333 9.09167 27.1083 7.275 30.125C5.45833 33.1417 3.03333 35.5333 0 37.3C1.46667 38.1667 3.05 38.8333 4.75 39.3C6.45 39.7667 8.2 40 10 40ZM10 36H8.95C8.61667 36 8.3 35.9667 8 35.9C9.9 33.7 11.375 31.2417 12.425 28.525C13.475 25.8083 14 22.9667 14 20C14 17.0333 13.475 14.1917 12.425 11.475C11.375 8.75833 9.9 6.3 8 4.1C8.3 4.03333 8.61667 4 8.95 4H10C14.4333 4 18.2083 5.55833 21.325 8.675C24.4417 11.7917 26 15.5667 26 20C26 24.4333 24.4417 28.2083 21.325 31.325C18.2083 34.4417 14.4333 36 10 36Z" fill="#85BBE2"/>
</svg>
