<svg width="33" height="41" viewBox="0 0 33 41" fill="none" xmlns="http://www.w3.org/2000/svg">
<mask id="path-1-inside-1_6_36" fill="white">
<path fill-rule="evenodd" clip-rule="evenodd" d="M2 0.666626C0.895431 0.666626 0 1.56205 0 2.66662V39C0 40.1045 0.89543 41 2 41H20C21.1046 41 22 40.1045 22 39V32.7047C17.3678 32.2448 13.75 28.3365 13.75 23.5833C13.75 18.8301 17.3678 14.9218 22 14.4619V2.66663C22 1.56206 21.1046 0.666626 20 0.666626H2Z"/>
</mask>
<path fill-rule="evenodd" clip-rule="evenodd" d="M2 0.666626C0.895431 0.666626 0 1.56205 0 2.66662V39C0 40.1045 0.89543 41 2 41H20C21.1046 41 22 40.1045 22 39V32.7047C17.3678 32.2448 13.75 28.3365 13.75 23.5833C13.75 18.8301 17.3678 14.9218 22 14.4619V2.66663C22 1.56206 21.1046 0.666626 20 0.666626H2Z" fill="#E8EAED"/>
<path d="M22 32.7047H22.5V32.2519L22.0494 32.2072L22 32.7047ZM22 14.4619L22.0494 14.9595L22.5 14.9147V14.4619H22ZM0.5 2.66662C0.5 1.8382 1.17157 1.16663 2 1.16663V0.166626C0.619289 0.166626 -0.5 1.28591 -0.5 2.66662H0.5ZM0.5 39V2.66662H-0.5V39H0.5ZM2 40.5C1.17157 40.5 0.5 39.8284 0.5 39H-0.5C-0.5 40.3807 0.619287 41.5 2 41.5V40.5ZM20 40.5H2V41.5H20V40.5ZM21.5 39C21.5 39.8284 20.8284 40.5 20 40.5V41.5C21.3807 41.5 22.5 40.3807 22.5 39H21.5ZM21.5 32.7047V39H22.5V32.7047H21.5ZM22.0494 32.2072C17.6704 31.7724 14.25 28.077 14.25 23.5833H13.25C13.25 28.5961 17.0652 32.7172 21.9506 33.2023L22.0494 32.2072ZM14.25 23.5833C14.25 19.0896 17.6704 15.3942 22.0494 14.9595L21.9506 13.9643C17.0652 14.4494 13.25 18.5705 13.25 23.5833H14.25ZM21.5 2.66663V14.4619H22.5V2.66663H21.5ZM20 1.16663C20.8284 1.16663 21.5 1.8382 21.5 2.66663H22.5C22.5 1.28591 21.3807 0.166626 20 0.166626V1.16663ZM2 1.16663H20V0.166626H2V1.16663Z" fill="#636F80" mask="url(#path-1-inside-1_6_36)"/>
<path d="M26.2441 28.3224L27.6558 26.9108L23.9249 23.1799V18.5416H21.9083V23.9866L26.2441 28.3224ZM22.9166 33.6666C21.5217 33.6666 20.2109 33.4019 18.9841 32.8725C17.7573 32.3432 16.6901 31.6247 15.7826 30.7172C14.8751 29.8097 14.1567 28.7426 13.6273 27.5158C13.0979 26.289 12.8333 24.9781 12.8333 23.5833C12.8333 22.1884 13.0979 20.8776 13.6273 19.6508C14.1567 18.424 14.8751 17.3568 15.7826 16.4493C16.6901 15.5418 17.7573 14.8234 18.9841 14.294C20.2109 13.7646 21.5217 13.4999 22.9166 13.4999C24.3114 13.4999 25.6223 13.7646 26.8491 14.294C28.0759 14.8234 29.143 15.5418 30.0505 16.4493C30.958 17.3568 31.6765 18.424 32.2059 19.6508C32.7352 20.8776 32.9999 22.1884 32.9999 23.5833C32.9999 24.9781 32.7352 26.289 32.2059 27.5158C31.6765 28.7426 30.958 29.8097 30.0505 30.7172C29.143 31.6247 28.0759 32.3432 26.8491 32.8725C25.6223 33.4019 24.3114 33.6666 22.9166 33.6666ZM22.9166 31.6499C25.1517 31.6499 27.055 30.8643 28.6263 29.293C30.1976 27.7216 30.9833 25.8184 30.9833 23.5833C30.9833 21.3481 30.1976 19.4449 28.6263 17.8736C27.055 16.3023 25.1517 15.5166 22.9166 15.5166C20.6814 15.5166 18.7782 16.3023 17.2069 17.8736C15.6356 19.4449 14.8499 21.3481 14.8499 23.5833C14.8499 25.8184 15.6356 27.7216 17.2069 29.293C18.7782 30.8643 20.6814 31.6499 22.9166 31.6499Z" fill="#636F80"/>
</svg>
