<svg width="16" height="20" viewBox="0 0 16 20" fill="none" xmlns="http://www.w3.org/2000/svg">
<path d="M10.5002 -2.68221e-06C9.13358 -2.68221e-06 7.84191 0.262497 6.62524 0.787497C5.40858 1.3125 4.34608 2.02916 3.43774 2.9375C2.52941 3.84583 1.81274 4.90833 1.28774 6.125C0.762744 7.34167 0.500244 8.63333 0.500244 10C0.500244 11.3833 0.762744 12.6792 1.28774 13.8875C1.81274 15.0958 2.52941 16.1542 3.43774 17.0625C4.34608 17.9708 5.40858 18.6875 6.62524 19.2125C7.84191 19.7375 9.13358 20 10.5002 20C11.4002 20 12.2752 19.8833 13.1252 19.65C13.9752 19.4167 14.7669 19.0833 15.5002 18.65C13.9836 17.7667 12.7711 16.5708 11.8627 15.0625C10.9544 13.5542 10.5002 11.8667 10.5002 10C10.5002 8.13333 10.9544 6.44583 11.8627 4.9375C12.7711 3.42916 13.9836 2.23333 15.5002 1.35C14.7669 0.916664 13.9752 0.583331 13.1252 0.349997C12.2752 0.116664 11.4002 -2.68221e-06 10.5002 -2.68221e-06ZM10.5002 2H11.0252C11.1919 2 11.3502 2.01666 11.5002 2.05C10.5502 3.15 9.81275 4.37916 9.28775 5.7375C8.76275 7.09583 8.50025 8.51667 8.50025 10C8.50025 11.4833 8.76275 12.9042 9.28775 14.2625C9.81275 15.6208 10.5502 16.85 11.5002 17.95C11.3502 17.9833 11.1919 18 11.0252 18H10.5002C8.28358 18 6.39608 17.2208 4.83774 15.6625C3.27941 14.1042 2.50024 12.2167 2.50024 10C2.50024 7.78333 3.27941 5.89583 4.83774 4.3375C6.39608 2.77916 8.28358 2 10.5002 2Z" fill="#85BBE2"/>
</svg>
