<svg width="15" height="21" viewBox="0 0 15 21" fill="none" xmlns="http://www.w3.org/2000/svg">
<path d="M1.03448 6.3C0.741379 6.3 0.49569 6.19938 0.297414 5.99813C0.0991379 5.79688 0 5.5475 0 5.25C0 4.9525 0.0991379 4.70313 0.297414 4.50188C0.49569 4.30063 0.741379 4.2 1.03448 4.2C1.32759 4.2 1.57328 4.30063 1.77155 4.50188C1.96983 4.70313 2.06897 4.9525 2.06897 5.25C2.06897 5.5475 1.96983 5.79688 1.77155 5.99813C1.57328 6.19938 1.32759 6.3 1.03448 6.3ZM5.68966 21C4.55172 21 3.57759 20.5888 2.76724 19.7663C1.9569 18.9438 1.55172 17.955 1.55172 16.8V10.5C1.55172 8.75 2.15517 7.2625 3.36207 6.0375C4.56897 4.8125 6.03448 4.2 7.75862 4.2H9.64655C10.8362 4.2 11.8534 4.60688 12.6983 5.42063C13.5431 6.23438 13.9655 7.23625 13.9655 8.42625C13.9655 9.23125 13.7543 9.97063 13.3319 10.6444C12.9095 11.3181 12.3362 11.83 11.6121 12.18C11.0603 12.4425 10.625 12.8319 10.306 13.3481C9.98707 13.8644 9.82759 14.4288 9.82759 15.0413V16.8C9.82759 17.9725 9.42672 18.9656 8.625 19.7794C7.82328 20.5931 6.84483 21 5.68966 21ZM3.62069 4.2C3.32759 4.2 3.0819 4.09938 2.88362 3.89813C2.68534 3.69688 2.58621 3.4475 2.58621 3.15V2.625C2.58621 2.3275 2.68534 2.07813 2.88362 1.87688C3.0819 1.67563 3.32759 1.575 3.62069 1.575C3.91379 1.575 4.15948 1.67563 4.35776 1.87688C4.55603 2.07813 4.65517 2.3275 4.65517 2.625V3.15C4.65517 3.4475 4.55603 3.69688 4.35776 3.89813C4.15948 4.09938 3.91379 4.2 3.62069 4.2ZM5.68966 18.9C6.25862 18.9 6.74569 18.6944 7.15086 18.2831C7.55603 17.8719 7.75862 17.3775 7.75862 16.8V15.0413C7.75862 14.0263 8.02155 13.09 8.54741 12.2325C9.07328 11.375 9.7931 10.7275 10.7069 10.29C11.069 10.115 11.3578 9.85688 11.5733 9.51563C11.7888 9.17438 11.8966 8.8025 11.8966 8.4C11.8966 7.7875 11.6724 7.28438 11.2241 6.89063C10.7759 6.49688 10.25 6.3 9.64655 6.3H7.75862C6.62069 6.3 5.64655 6.71125 4.83621 7.53375C4.02586 8.35625 3.62069 9.345 3.62069 10.5V16.8C3.62069 17.3775 3.82328 17.8719 4.22845 18.2831C4.63362 18.6944 5.12069 18.9 5.68966 18.9ZM6.72414 3.15C6.43103 3.15 6.18534 3.04938 5.98707 2.84813C5.78879 2.64688 5.68966 2.3975 5.68966 2.1V1.575C5.68966 1.2775 5.78879 1.02813 5.98707 0.826875C6.18534 0.625625 6.43103 0.525 6.72414 0.525C7.01724 0.525 7.26293 0.625625 7.46121 0.826875C7.65948 1.02813 7.75862 1.2775 7.75862 1.575V2.1C7.75862 2.3975 7.65948 2.64688 7.46121 2.84813C7.26293 3.04938 7.01724 3.15 6.72414 3.15ZM9.82759 3.15C9.53448 3.15 9.28879 3.04938 9.09052 2.84813C8.89224 2.64688 8.7931 2.3975 8.7931 2.1V1.05C8.7931 0.7525 8.89224 0.503125 9.09052 0.301875C9.28879 0.100625 9.53448 0 9.82759 0C10.1207 0 10.3664 0.100625 10.5647 0.301875C10.7629 0.503125 10.8621 0.7525 10.8621 1.05V2.1C10.8621 2.3975 10.7629 2.64688 10.5647 2.84813C10.3664 3.04938 10.1207 3.15 9.82759 3.15ZM13.4483 4.2C13.0172 4.2 12.6509 4.04688 12.3491 3.74063C12.0474 3.43438 11.8966 3.0625 11.8966 2.625V1.575C11.8966 1.1375 12.0474 0.765625 12.3491 0.459375C12.6509 0.153125 13.0172 0 13.4483 0C13.8793 0 14.2457 0.153125 14.5474 0.459375C14.8491 0.765625 15 1.1375 15 1.575V2.625C15 3.0625 14.8491 3.43438 14.5474 3.74063C14.2457 4.04688 13.8793 4.2 13.4483 4.2Z" fill="#242424"/>
</svg>
