<svg width="18" height="22" viewBox="0 0 18 22" fill="none" xmlns="http://www.w3.org/2000/svg">
<mask id="path-1-inside-1_140_31" fill="white">
<path fill-rule="evenodd" clip-rule="evenodd" d="M2.6189 0.175659C1.51433 0.175659 0.618896 1.07109 0.618896 2.17566V19.4191C0.618896 20.5237 1.51433 21.4191 2.6189 21.4191H10.2062C11.3108 21.4191 12.2062 20.5237 12.2062 19.4191V17.0499C9.76649 16.8077 7.86105 14.7492 7.86105 12.2457C7.86105 9.74224 9.76649 7.68379 12.2062 7.44152V2.17566C12.2062 1.07109 11.3108 0.175659 10.2062 0.175659H2.6189Z"/>
</mask>
<path fill-rule="evenodd" clip-rule="evenodd" d="M2.6189 0.175659C1.51433 0.175659 0.618896 1.07109 0.618896 2.17566V19.4191C0.618896 20.5237 1.51433 21.4191 2.6189 21.4191H10.2062C11.3108 21.4191 12.2062 20.5237 12.2062 19.4191V17.0499C9.76649 16.8077 7.86105 14.7492 7.86105 12.2457C7.86105 9.74224 9.76649 7.68379 12.2062 7.44152V2.17566C12.2062 1.07109 11.3108 0.175659 10.2062 0.175659H2.6189Z" fill="#E8EAED"/>
<path d="M12.2062 17.0499H12.7062V16.5971L12.2556 16.5524L12.2062 17.0499ZM12.2062 7.44152L12.2556 7.93907L12.7062 7.89433V7.44152H12.2062ZM1.1189 2.17566C1.1189 1.34723 1.79047 0.675659 2.6189 0.675659V-0.324341C1.23819 -0.324341 0.118896 0.794945 0.118896 2.17566H1.1189ZM1.1189 19.4191V2.17566H0.118896V19.4191H1.1189ZM2.6189 20.9191C1.79047 20.9191 1.1189 20.2475 1.1189 19.4191H0.118896C0.118896 20.7998 1.23818 21.9191 2.6189 21.9191V20.9191ZM10.2062 20.9191H2.6189V21.9191H10.2062V20.9191ZM11.7062 19.4191C11.7062 20.2475 11.0347 20.9191 10.2062 20.9191V21.9191C11.5869 21.9191 12.7062 20.7998 12.7062 19.4191H11.7062ZM11.7062 17.0499V19.4191H12.7062V17.0499H11.7062ZM12.2556 16.5524C10.0691 16.3353 8.36105 14.4897 8.36105 12.2457H7.36105C7.36105 15.0088 9.46389 17.2801 12.1568 17.5475L12.2556 16.5524ZM8.36105 12.2457C8.36105 10.0018 10.0691 8.1562 12.2556 7.93907L12.1568 6.94397C9.46389 7.21138 7.36105 9.48267 7.36105 12.2457H8.36105ZM11.7062 2.17566V7.44152H12.7062V2.17566H11.7062ZM10.2062 0.675659C11.0347 0.675659 11.7062 1.34723 11.7062 2.17566H12.7062C12.7062 0.794948 11.5869 -0.324341 10.2062 -0.324341V0.675659ZM2.6189 0.675659H10.2062V-0.324341H2.6189V0.675659Z" fill="#636F80" mask="url(#path-1-inside-1_140_31)"/>
<path d="M14.4417 14.7419L15.1853 13.9984L13.2202 12.0334V9.59037H12.1581V12.4582L14.4417 14.7419ZM12.6892 17.5567C11.9545 17.5567 11.2641 17.4172 10.6179 17.1384C9.97177 16.8596 9.4097 16.4812 8.93172 16.0032C8.45375 15.5253 8.07535 14.9632 7.79653 14.317C7.51771 13.6709 7.3783 12.9805 7.3783 12.2458C7.3783 11.5111 7.51771 10.8207 7.79653 10.1746C8.07535 9.52841 8.45375 8.96634 8.93172 8.48836C9.4097 8.01039 9.97177 7.63199 10.6179 7.35317C11.2641 7.07435 11.9545 6.93494 12.6892 6.93494C13.4238 6.93494 14.1142 7.07435 14.7604 7.35317C15.4065 7.63199 15.9686 8.01039 16.4466 8.48836C16.9246 8.96634 17.303 9.52841 17.5818 10.1746C17.8606 10.8207 18 11.5111 18 12.2458C18 12.9805 17.8606 13.6709 17.5818 14.317C17.303 14.9632 16.9246 15.5253 16.4466 16.0032C15.9686 16.4812 15.4065 16.8596 14.7604 17.1384C14.1142 17.4172 13.4238 17.5567 12.6892 17.5567ZM12.6892 16.4945C13.8664 16.4945 14.8688 16.0807 15.6964 15.2531C16.524 14.4255 16.9378 13.423 16.9378 12.2458C16.9378 11.0686 16.524 10.0661 15.6964 9.23852C14.8688 8.41091 13.8664 7.99711 12.6892 7.99711C11.5119 7.99711 10.5095 8.41091 9.68188 9.23852C8.85427 10.0661 8.44047 11.0686 8.44047 12.2458C8.44047 13.423 8.85427 14.4255 9.68188 15.2531C10.5095 16.0807 11.5119 16.4945 12.6892 16.4945Z" fill="#636F80"/>
</svg>
