<svg width="51" height="35" viewBox="0 0 51 35" fill="none" xmlns="http://www.w3.org/2000/svg">
<path d="M43.4566 27.0374L43.4552 22.5131L45.9193 22.4735L45.916 12.1324L43.4519 12.0912L43.4504 7.48613L45.9145 7.44652C47.1533 7.44692 48.2239 7.9118 49.1263 8.84118C50.0288 9.77056 50.4802 10.8546 50.4806 12.0934L50.4839 22.5154C50.4843 23.7542 50.0336 24.8245 49.1317 25.7263C48.2299 26.6282 47.1595 27.079 45.9207 27.0786L43.4566 27.0374ZM4.6369 27.0654C3.39812 27.065 2.3275 26.6136 1.42506 25.7111C0.522612 24.8087 0.0711898 23.738 0.0707933 22.4993L0.067464 12.0773C0.0670698 10.8385 0.517806 9.7682 1.41968 8.86634C2.32155 7.96447 3.39187 7.51373 4.63066 7.51412L7.05437 7.5149L7.05584 12.1199L4.59172 12.0788L4.59505 22.5007L7.05914 22.4611L7.06061 27.0661L4.6369 27.0654ZM34.2473 29.5389L38.8524 29.5404L38.8446 5.06095L34.2395 5.05948L34.2473 29.5389ZM11.6261 29.5317L16.2715 29.4928L16.2637 5.09413L11.6182 5.05225L11.6261 29.5317ZM20.833 19.8398L29.6796 19.883L29.6779 14.7125L20.8314 14.75L20.833 19.8398ZM11.6679 34.0964C10.4291 34.096 9.35177 33.6378 8.43585 32.7219C7.51994 31.806 7.06178 30.7286 7.06139 29.4899L7.05359 5.09119C7.0532 3.85241 7.51066 2.77535 8.42599 1.86002C9.34133 0.944685 10.4184 0.487218 11.6572 0.487613L16.2622 0.489085C17.501 0.489481 18.5716 0.940901 19.4741 1.84335C20.3765 2.74579 20.8279 3.81641 20.8283 5.05519L20.8299 10.145L29.7169 10.1478L29.6749 5.09842C29.6745 3.85963 30.1319 2.78257 31.0473 1.86724C31.9626 0.951911 33.0397 0.494443 34.2784 0.49484L38.8835 0.49631C40.1223 0.496707 41.1929 0.948128 42.0953 1.85057C42.9978 2.75302 43.4492 3.82364 43.4496 5.06242L43.4574 29.5419C43.4578 30.7807 43.0071 31.851 42.1052 32.7529C41.2033 33.6547 40.133 34.1055 38.8942 34.1051L34.2892 34.1036C33.0504 34.1032 31.9731 33.645 31.0571 32.7291C30.1412 31.8132 29.6831 30.7359 29.6827 29.4971L29.7215 24.4477L20.8345 24.4449L20.8361 29.5347C20.8365 30.7734 20.3858 31.8438 19.4839 32.7456C18.5821 33.6475 17.5117 34.0982 16.273 34.0978L11.6679 34.0964Z" fill="#242424"/>
</svg>
