<svg width="32" height="44" viewBox="0 0 32 44" fill="none" xmlns="http://www.w3.org/2000/svg">
<path d="M2.2069 13.2C1.58161 13.2 1.05747 12.9892 0.634483 12.5675C0.211494 12.1458 0 11.6233 0 11C0 10.3767 0.211494 9.85417 0.634483 9.4325C1.05747 9.01083 1.58161 8.8 2.2069 8.8C2.83218 8.8 3.35632 9.01083 3.77931 9.4325C4.2023 9.85417 4.41379 10.3767 4.41379 11C4.41379 11.6233 4.2023 12.1458 3.77931 12.5675C3.35632 12.9892 2.83218 13.2 2.2069 13.2ZM12.1379 44C9.71034 44 7.63218 43.1383 5.90345 41.415C4.17471 39.6917 3.31034 37.62 3.31034 35.2V22C3.31034 18.3333 4.5977 15.2167 7.17241 12.65C9.74713 10.0833 12.8736 8.8 16.5517 8.8H20.5793C23.1172 8.8 25.2874 9.6525 27.0897 11.3575C28.892 13.0625 29.7931 15.1617 29.7931 17.655C29.7931 19.3417 29.3425 20.8908 28.4414 22.3025C27.5402 23.7142 26.3172 24.7867 24.7724 25.52C23.5954 26.07 22.6667 26.8858 21.9862 27.9675C21.3057 29.0492 20.9655 30.2317 20.9655 31.515V35.2C20.9655 37.6567 20.1103 39.7375 18.4 41.4425C16.6897 43.1475 14.6023 44 12.1379 44ZM7.72414 8.8C7.09885 8.8 6.57471 8.58917 6.15172 8.1675C5.72874 7.74583 5.51724 7.22333 5.51724 6.6V5.5C5.51724 4.87667 5.72874 4.35417 6.15172 3.9325C6.57471 3.51083 7.09885 3.3 7.72414 3.3C8.34943 3.3 8.87356 3.51083 9.29655 3.9325C9.71954 4.35417 9.93103 4.87667 9.93103 5.5V6.6C9.93103 7.22333 9.71954 7.74583 9.29655 8.1675C8.87356 8.58917 8.34943 8.8 7.72414 8.8ZM12.1379 39.6C13.3517 39.6 14.3908 39.1692 15.2552 38.3075C16.1195 37.4458 16.5517 36.41 16.5517 35.2V31.515C16.5517 29.3883 17.1126 27.4267 18.2345 25.63C19.3563 23.8333 20.892 22.4767 22.8414 21.56C23.6138 21.1933 24.2299 20.6525 24.6897 19.9375C25.1494 19.2225 25.3793 18.4433 25.3793 17.6C25.3793 16.3167 24.9011 15.2625 23.9448 14.4375C22.9885 13.6125 21.8667 13.2 20.5793 13.2H16.5517C14.1241 13.2 12.046 14.0617 10.3172 15.785C8.58851 17.5083 7.72414 19.58 7.72414 22V35.2C7.72414 36.41 8.15632 37.4458 9.02069 38.3075C9.88506 39.1692 10.9241 39.6 12.1379 39.6ZM14.3448 6.6C13.7195 6.6 13.1954 6.38917 12.7724 5.9675C12.3494 5.54583 12.1379 5.02333 12.1379 4.4V3.3C12.1379 2.67667 12.3494 2.15417 12.7724 1.7325C13.1954 1.31083 13.7195 1.1 14.3448 1.1C14.9701 1.1 15.4943 1.31083 15.9172 1.7325C16.3402 2.15417 16.5517 2.67667 16.5517 3.3V4.4C16.5517 5.02333 16.3402 5.54583 15.9172 5.9675C15.4943 6.38917 14.9701 6.6 14.3448 6.6ZM20.9655 6.6C20.3402 6.6 19.8161 6.38917 19.3931 5.9675C18.9701 5.54583 18.7586 5.02333 18.7586 4.4V2.2C18.7586 1.57667 18.9701 1.05417 19.3931 0.6325C19.8161 0.210833 20.3402 0 20.9655 0C21.5908 0 22.1149 0.210833 22.5379 0.6325C22.9609 1.05417 23.1724 1.57667 23.1724 2.2V4.4C23.1724 5.02333 22.9609 5.54583 22.5379 5.9675C22.1149 6.38917 21.5908 6.6 20.9655 6.6ZM28.6897 8.8C27.7701 8.8 26.9885 8.47917 26.3448 7.8375C25.7011 7.19583 25.3793 6.41667 25.3793 5.5V3.3C25.3793 2.38333 25.7011 1.60417 26.3448 0.9625C26.9885 0.320833 27.7701 0 28.6897 0C29.6092 0 30.3908 0.320833 31.0345 0.9625C31.6782 1.60417 32 2.38333 32 3.3V5.5C32 6.41667 31.6782 7.19583 31.0345 7.8375C30.3908 8.47917 29.6092 8.8 28.6897 8.8Z" fill="#242424"/>
</svg>
