<svg width="20" height="20" viewBox="0 0 20 20" fill="none" xmlns="http://www.w3.org/2000/svg">
<path d="M9.09128 3.63612V-0.000244141H10.9095V3.63612H9.09128ZM15.1367 6.13612L13.8867 4.88612L16.4322 2.27248L17.7049 3.56794L15.1367 6.13612ZM16.364 10.9088V9.09067H20.0004V10.9088H16.364ZM9.09128 19.9998V16.3634H10.9095V19.9998H9.09128ZM4.864 6.09067L2.27309 3.56794L3.56855 2.29521L6.13673 4.86339L4.864 6.09067ZM16.4095 17.727L13.8867 15.1134L15.114 13.8861L17.7049 16.3861L16.4095 17.727ZM0.000366211 10.9088V9.09067H3.63673V10.9088H0.000366211ZM3.56855 17.727L2.29582 16.4316L4.84128 13.8861L5.50037 14.4998L6.15946 15.1361L3.56855 17.727ZM10.0004 15.4543C8.48522 15.4543 7.19734 14.924 6.13673 13.8634C5.07612 12.8028 4.54582 11.5149 4.54582 9.99976C4.54582 8.48461 5.07612 7.19673 6.13673 6.13612C7.19734 5.07551 8.48522 4.54521 10.0004 4.54521C11.5155 4.54521 12.8034 5.07551 13.864 6.13612C14.9246 7.19673 15.4549 8.48461 15.4549 9.99976C15.4549 11.5149 14.9246 12.8028 13.864 13.8634C12.8034 14.924 11.5155 15.4543 10.0004 15.4543ZM10.0004 13.6361C11.0004 13.6361 11.8564 13.2801 12.5685 12.5679C13.2807 11.8558 13.6367 10.9998 13.6367 9.99976C13.6367 8.99976 13.2807 8.1437 12.5685 7.43158C11.8564 6.71945 11.0004 6.36339 10.0004 6.36339C9.00037 6.36339 8.14431 6.71945 7.43219 7.43158C6.72006 8.1437 6.364 8.99976 6.364 9.99976C6.364 10.9998 6.72006 11.8558 7.43219 12.5679C8.14431 13.2801 9.00037 13.6361 10.0004 13.6361Z" fill="#E3980D"/>
</svg>
