<svg width="21" height="19" viewBox="0 0 21 19" fill="none" xmlns="http://www.w3.org/2000/svg">
<path d="M10.3575 19L14.681 7.6H16.6765L21 19H19.0045L17.983 16.1025H13.3744L12.3529 19H10.3575ZM2.85068 16.15L1.52036 14.82L6.319 10.0225C5.76471 9.46833 5.26188 8.835 4.81052 8.1225C4.35916 7.41 3.94344 6.6025 3.56335 5.7H5.55882C5.87557 6.3175 6.19231 6.85583 6.50905 7.315C6.82579 7.77417 7.20588 8.23333 7.64932 8.6925C8.17195 8.17 8.71437 7.43771 9.27658 6.49563C9.8388 5.55354 10.2624 4.655 10.5475 3.8H0V1.9H6.65158V0H8.55204V1.9H15.2036V3.8H12.448C12.1154 4.94 11.6165 6.11167 10.9514 7.315C10.2862 8.51833 9.62896 9.43667 8.97964 10.07L11.2602 12.3975L10.5475 14.345L7.64932 11.3763L2.85068 16.15ZM13.9683 14.44H17.3891L15.6787 9.595L13.9683 14.44Z" fill="#85BBE2"/>
</svg>
