<svg width="43" height="39" viewBox="0 0 43 39" fill="none" xmlns="http://www.w3.org/2000/svg">
<path d="M21.2081 39L30.0611 15.6H34.1471L43 39H38.914L36.8224 33.0525H27.3857L25.2941 39H21.2081ZM5.8371 33.15L3.11312 30.42L12.9389 20.5725C11.8039 19.435 10.7743 18.135 9.85011 16.6725C8.92591 15.21 8.07466 13.5525 7.29638 11.7H11.3824C12.0309 12.9675 12.6795 14.0725 13.3281 15.015C13.9766 15.9575 14.7549 16.9 15.6629 17.8425C16.733 16.77 17.8437 15.2669 18.9949 13.3331C20.1461 11.3994 21.0136 9.555 21.5973 7.8H0V3.9H13.6199V0H17.5113V3.9H31.1312V7.8H25.4887C24.8077 10.14 23.7862 12.545 22.4242 15.015C21.0622 17.485 19.7164 19.37 18.3869 20.67L23.0566 25.4475L21.5973 29.445L15.6629 23.3513L5.8371 33.15ZM28.6018 29.64H35.6063L32.1041 19.695L28.6018 29.64Z" fill="#85BBE2"/>
</svg>
