<svg width="21" height="21" viewBox="0 0 21 21" fill="none" xmlns="http://www.w3.org/2000/svg">
<path d="M0 18.656V11.0023H8.00954V18.656H0ZM2.00238 16.7426H6.00715V12.9157H2.00238V16.7426ZM3.50417 8.61048L9.01073 0L14.5173 8.61048H3.50417ZM7.0584 6.69704H10.9631L9.01073 3.68337L7.0584 6.69704ZM19.5983 21L16.9452 18.4647C16.5948 18.6879 16.2151 18.8554 15.8063 18.967C15.3975 19.0786 14.9678 19.1344 14.5173 19.1344C13.2658 19.1344 12.202 18.7158 11.326 17.8787C10.4499 17.0416 10.0119 16.0251 10.0119 14.8292C10.0119 13.6333 10.4499 12.6167 11.326 11.7796C12.202 10.9425 13.2658 10.5239 14.5173 10.5239C15.7688 10.5239 16.8325 10.9425 17.7086 11.7796C18.5846 12.6167 19.0226 13.6333 19.0226 14.8292C19.0226 15.2437 18.9642 15.6464 18.8474 16.037C18.7306 16.4277 18.5638 16.7904 18.3468 17.1253L21 19.6606L19.5983 21ZM14.5173 17.221C15.2181 17.221 15.8105 16.9897 16.2944 16.5273C16.7783 16.0649 17.0203 15.4989 17.0203 14.8292C17.0203 14.1595 16.7783 13.5934 16.2944 13.131C15.8105 12.6686 15.2181 12.4374 14.5173 12.4374C13.8164 12.4374 13.2241 12.6686 12.7402 13.131C12.2563 13.5934 12.0143 14.1595 12.0143 14.8292C12.0143 15.4989 12.2563 16.0649 12.7402 16.5273C13.2241 16.9897 13.8164 17.221 14.5173 17.221Z" fill="#E8EAED"/>
</svg>
