<svg width="18" height="20" viewBox="0 0 18 20" fill="none" xmlns="http://www.w3.org/2000/svg">
<path d="M1.91667 19.1667C1.38958 19.1667 0.938368 18.979 0.563021 18.6036C0.187674 18.2283 0 17.7771 0 17.25V3.83333C0 3.30625 0.187674 2.85503 0.563021 2.47969C0.938368 2.10434 1.38958 1.91667 1.91667 1.91667H2.875V0H4.79167V1.91667H12.4583V0H14.375V1.91667H15.3333C15.8604 1.91667 16.3116 2.10434 16.687 2.47969C17.0623 2.85503 17.25 3.30625 17.25 3.83333V17.25C17.25 17.7771 17.0623 18.2283 16.687 18.6036C16.3116 18.979 15.8604 19.1667 15.3333 19.1667H1.91667ZM1.91667 17.25H15.3333V7.66667H1.91667V17.25ZM1.91667 5.75H15.3333V3.83333H1.91667V5.75ZM8.625 11.5C8.35347 11.5 8.12587 11.4082 7.94219 11.2245C7.75851 11.0408 7.66667 10.8132 7.66667 10.5417C7.66667 10.2701 7.75851 10.0425 7.94219 9.85885C8.12587 9.67517 8.35347 9.58333 8.625 9.58333C8.89653 9.58333 9.12413 9.67517 9.30781 9.85885C9.49149 10.0425 9.58333 10.2701 9.58333 10.5417C9.58333 10.8132 9.49149 11.0408 9.30781 11.2245C9.12413 11.4082 8.89653 11.5 8.625 11.5ZM4.79167 11.5C4.52014 11.5 4.29253 11.4082 4.10885 11.2245C3.92517 11.0408 3.83333 10.8132 3.83333 10.5417C3.83333 10.2701 3.92517 10.0425 4.10885 9.85885C4.29253 9.67517 4.52014 9.58333 4.79167 9.58333C5.06319 9.58333 5.2908 9.67517 5.47448 9.85885C5.65816 10.0425 5.75 10.2701 5.75 10.5417C5.75 10.8132 5.65816 11.0408 5.47448 11.2245C5.2908 11.4082 5.06319 11.5 4.79167 11.5ZM12.4583 11.5C12.1868 11.5 11.9592 11.4082 11.7755 11.2245C11.5918 11.0408 11.5 10.8132 11.5 10.5417C11.5 10.2701 11.5918 10.0425 11.7755 9.85885C11.9592 9.67517 12.1868 9.58333 12.4583 9.58333C12.7299 9.58333 12.9575 9.67517 13.1411 9.85885C13.3248 10.0425 13.4167 10.2701 13.4167 10.5417C13.4167 10.8132 13.3248 11.0408 13.1411 11.2245C12.9575 11.4082 12.7299 11.5 12.4583 11.5ZM8.625 15.3333C8.35347 15.3333 8.12587 15.2415 7.94219 15.0578C7.75851 14.8741 7.66667 14.6465 7.66667 14.375C7.66667 14.1035 7.75851 13.8759 7.94219 13.6922C8.12587 13.5085 8.35347 13.4167 8.625 13.4167C8.89653 13.4167 9.12413 13.5085 9.30781 13.6922C9.49149 13.8759 9.58333 14.1035 9.58333 14.375C9.58333 14.6465 9.49149 14.8741 9.30781 15.0578C9.12413 15.2415 8.89653 15.3333 8.625 15.3333ZM4.79167 15.3333C4.52014 15.3333 4.29253 15.2415 4.10885 15.0578C3.92517 14.8741 3.83333 14.6465 3.83333 14.375C3.83333 14.1035 3.92517 13.8759 4.10885 13.6922C4.29253 13.5085 4.52014 13.4167 4.79167 13.4167C5.06319 13.4167 5.2908 13.5085 5.47448 13.6922C5.65816 13.8759 5.75 14.1035 5.75 14.375C5.75 14.6465 5.65816 14.8741 5.47448 15.0578C5.2908 15.2415 5.06319 15.3333 4.79167 15.3333ZM12.4583 15.3333C12.1868 15.3333 11.9592 15.2415 11.7755 15.0578C11.5918 14.8741 11.5 14.6465 11.5 14.375C11.5 14.1035 11.5918 13.8759 11.7755 13.6922C11.9592 13.5085 12.1868 13.4167 12.4583 13.4167C12.7299 13.4167 12.9575 13.5085 13.1411 13.6922C13.3248 13.8759 13.4167 14.1035 13.4167 14.375C13.4167 14.6465 13.3248 14.8741 13.1411 15.0578C12.9575 15.2415 12.7299 15.3333 12.4583 15.3333Z" fill="#E8EAED"/>
</svg>
