<svg width="19" height="19" viewBox="0 0 19 19" fill="none" xmlns="http://www.w3.org/2000/svg">
<path d="M19 4.22222V16.8889C19 17.4694 18.7933 17.9664 18.3799 18.3799C17.9664 18.7933 17.4694 19 16.8889 19H2.11111C1.53056 19 1.03356 18.7933 0.620139 18.3799C0.206713 17.9664 0 17.4694 0 16.8889V2.11111C0 1.53056 0.206713 1.03356 0.620139 0.620139C1.03356 0.206713 1.53056 0 2.11111 0H14.7778L19 4.22222ZM16.8889 5.11944L13.8806 2.11111H2.11111V16.8889H16.8889V5.11944ZM9.5 15.8333C10.3796 15.8333 11.1273 15.5255 11.7431 14.9097C12.3588 14.294 12.6667 13.5463 12.6667 12.6667C12.6667 11.787 12.3588 11.0394 11.7431 10.4236C11.1273 9.80787 10.3796 9.5 9.5 9.5C8.62037 9.5 7.87269 9.80787 7.25694 10.4236C6.6412 11.0394 6.33333 11.787 6.33333 12.6667C6.33333 13.5463 6.6412 14.294 7.25694 14.9097C7.87269 15.5255 8.62037 15.8333 9.5 15.8333ZM3.16667 7.38889H12.6667V3.16667H3.16667V7.38889ZM2.11111 5.11944V16.8889V2.11111V5.11944Z" fill="#E8EAED"/>
</svg>
